<?xml version="1.0" standalone="no"?>
<!DOCTYPE svg PUBLIC "-//W3C//DTD SVG 1.1//EN" "http://www.w3.org/Graphics/SVG/1.1/DTD/svg11.dtd" >
<svg xmlns="http://www.w3.org/2000/svg">
<metadata>Generated by IcoMoon</metadata>
<defs>
<font id="icomoon" horiz-adv-x="1024">
<font-face units-per-em="1024" ascent="960" descent="-64" />
<missing-glyph horiz-adv-x="1024" />
<glyph unicode="&#x20;" horiz-adv-x="512" d="" />
<glyph unicode="&#xe900;" glyph-name="filter" horiz-adv-x="1132" d="M170.942 906.105h-170.942v-107.789h170.942c18.637-32.218 53.472-53.895 93.369-53.895s74.732 21.676 93.369 53.895h774.109v107.789h-774.109c-18.637 32.218-53.472 53.895-93.369 53.895s-74.732-21.676-93.369-53.895zM709.889 528.842h-709.889v-107.789h709.889c18.637-32.218 53.472-53.895 93.369-53.895s74.732 21.676 93.369 53.895h235.162v107.789h-235.162c-18.637 32.218-53.472 53.895-93.369 53.895s-74.732-21.676-93.369-53.895zM278.731 97.684h-278.731v-107.789h278.731c18.637-32.218 53.472-53.895 93.369-53.895s74.732 21.676 93.369 53.895h666.32v107.789h-666.32c-18.637 32.218-53.472 53.895-93.369 53.895s-74.732-21.676-93.369-53.895z" />
<glyph unicode="&#xe901;" glyph-name="Downarrow" horiz-adv-x="1820" d="M1788.248 936.402h-1698.068l849.034-968.206z" />
<glyph unicode="&#xe902;" glyph-name="sem" d="M66.064-30.961h594.577c36.467 0 66.064 29.597 66.064 66.064v89.186c14.072 6.739 27.218 14.798 39.572 24.113l202.751-202.751c6.474-6.474 14.931-9.645 23.387-9.645s16.912 3.237 23.387 9.645c12.882 12.883 12.882 33.825 0 46.707l-202.883 202.883c28.474 38.449 45.915 85.619 45.915 137.149 0 92.093-54.239 170.908-132.128 208.102v353.443c0 36.467-29.597 66.064-66.064 66.064h-594.577c-36.467 0-66.064-29.597-66.064-66.064v-858.833c0-36.467 29.597-66.064 66.064-66.064v0zM627.609 167.231c-91.036 0-165.16 74.124-165.16 165.16s74.124 165.16 165.16 165.16c91.036 0 165.16-74.124 165.16-165.16s-74.124-165.16-165.16-165.16v0zM561.545 695.744h-396.384c-18.234 0-33.032 14.798-33.032 33.032s14.798 33.032 33.032 33.032h396.384c18.234 0 33.032-14.798 33.032-33.032s-14.798-33.032-33.032-33.032v0zM165.16 563.616h396.384c6.408 0 12.024-2.312 17.044-5.417-43.206-9.381-81.919-30.786-112.441-60.647h-300.988c-18.234 0-33.032 14.798-33.032 33.032s14.798 33.032 33.032 33.032v0zM165.16 365.423h234.527c-1.519-10.901-3.303-21.735-3.303-33.032s1.784-22.131 3.303-33.032h-234.527c-18.234 0-33.032 14.798-33.032 33.032s14.798 33.032 33.032 33.032v0z" />
<glyph unicode="&#xe903;" glyph-name="reportschedule" horiz-adv-x="745" d="M0 960v-1011.898h744.757v778.996l-239.353 232.903h-505.404zM453.33 911.429l243.456-236.958h-243.456v236.958zM417.673 469.356v93.98l180.232-184.407-178.742-177.643v98.917h-265.354v169.153h263.864z" />
<glyph unicode="&#xe904;" glyph-name="calendar" horiz-adv-x="935" d="M661.020 865.295v94.705h119.103v-94.705h154.834v-929.295h-934.957v929.295h160.789v94.705h119.103v-94.705h381.129zM107.192 616.694v-574.15h726.527v574.15h-726.527zM470.456 403.607v-254.52h256.071v254.52h-256.071z" />
<glyph unicode="&#xe905;" glyph-name="gmail" horiz-adv-x="1365" d="M0 788.605c0 94.659 76.332 171.395 170.16 171.395h1025.014c93.977 0 170.16-76.966 170.16-171.395v-681.211c0-94.659-76.332-171.395-170.16-171.395h-1025.014c-93.977 0-170.16 76.966-170.16 171.395v681.211zM153.599 746.667v-757.958h1029.306l1.52 757.958-511.633-386.906-519.193 386.906zM170.667 917.333l501.832-370.573 484.622 370.573h-986.453z" />
<glyph unicode="&#xe906;" glyph-name="seim" horiz-adv-x="878" d="M818.719 281.715c-170.715-170.653-448.512-170.778-619.227 0-82.631 82.568-128.084 192.533-128.084 309.645s45.516 227.077 128.021 309.582c12.225 12.225 12.225 32.099 0 44.325s-32.099 12.225-44.325 0c-94.417-94.354-146.39-220.056-146.39-353.907s52.036-259.615 146.39-353.97c79.684-79.747 179.869-126.328 283.752-140.936v-76.863h-94.041c-17.304 0-31.347-14.043-31.347-31.347s14.043-31.347 31.347-31.347h250.776c17.304 0 31.347 14.043 31.347 31.347s-14.043 31.347-31.347 31.347h-94.041v71.722c2.508-0.063 5.016-0.376 7.523-0.376 128.146 0 256.355 48.776 353.97 146.39 12.225 12.225 12.225 32.099 0 44.325s-32.099 12.288-44.325 0.063v0zM140.434 591.36c0-203.594 165.046-368.64 368.64-368.64s368.64 165.046 368.64 368.64c0 203.594-165.046 368.64-368.64 368.64s-368.64-165.046-368.64-368.64v0z" />
<glyph unicode="&#xe907;" glyph-name="display" horiz-adv-x="1103" d="M1020.554 960h-952.517c-37.556 0-68.037-30.481-68.037-68.037v-612.332c0-37.556 30.481-68.037 68.037-68.037h340.117c-0.136-49.191-2.109-113.077-20.751-136.074h-13.743c-18.506 0-33.474-15.24-33.474-34.018s14.968-34.018 33.474-34.018h341.205c18.574 0 33.542 15.24 33.542 34.018s-14.968 34.018-33.474 34.018h-13.743c-18.71 22.997-20.615 86.883-20.751 136.074h340.117c37.556 0 68.037 30.481 68.037 68.037v612.332c0 37.556-30.481 68.037-68.037 68.037v0zM476.258 211.594l-0.068-0.136c0 0.068 0 0.068 0.068 0.136v0 0zM612.4 211.458l-0.068 0.136h0.068v-0.136zM1020.554 347.668h-952.517v544.295h952.517v-544.295z" />
<glyph unicode="&#xe908;" glyph-name="social" d="M448 800c0 85.632-74.368 160-160 160s-160-74.368-160-160c0-85.632 74.368-160 160-160s160 74.368 160 160v0zM560 192c0 256-132.864 384-280 384s-280-128-280-384c0-175.36 560-175.36 560 0v0zM752 515.52c85.632 0 160 74.368 160 160s-74.368 160-160 160c-85.632 0-160-74.368-160-160s74.368-160 160-160v0zM744 451.52c-44.224 0-86.592-12.992-124.992-36.16 23.232-62.464 36.992-136.512 36.992-223.36 0-86.208-57.472-153.344-156.096-191.744 122.304-103.552 524.096-81.472 524.096 67.264 0 256-132.864 384-280 384v0z" />
<glyph unicode="&#xe909;" glyph-name="rep.mgt" d="M38.4 384h230.4v-448h-230.4v448zM384 944h230.4v-1008h-230.4v1008zM729.6 720h230.4v-784h-230.4v784z" />
<glyph unicode="&#xe90b;" glyph-name="seo" horiz-adv-x="1575" d="M1493.819 548.843l-329.041 340.732c-10.038 9.363-47.099 16.916-52.799 17.015l-806.272 14.137c-49.406 0.862-90.137-38.471-90.999-87.877l-1.756-100.586-100.586 1.756c-49.406 0.862-90.137-38.471-90.999-87.877l-10.274-588.569c-0.431-24.703 9.188-47.174 25.12-63.672s38.054-26.896 62.757-27.327l806.274-14.010c5.763-0.164 41.234 2.829 53.608 14.778l535.362 516.993c18.852 16.462 19.77 43.627 2.717 61.286-2.178 2.256-2.549 2.769-3.112 3.222zM1368.701 549.949c17.177-17.787 16.682-46.164-1.106-63.341s-46.164-16.682-63.341 1.106c-17.177 17.787-16.682 46.164 1.106 63.341s46.164 16.682 63.341-1.106v0zM323.96 52.038l-223.304 3.845 10.145 588.444 100.586-1.756-6.954-398.418c-0.431-24.703 9.188-47.174 25.12-63.672s38.054-26.896 62.757-27.327l717.089-12.454-101.891-98.395c-0.765-0.24-583.548 9.732-583.548 9.732z" />
<glyph unicode="&#xe90c;" glyph-name="email" horiz-adv-x="1365" d="M1226.4 960h-1144.64c-45.132 0-81.76-36.628-81.76-81.76v-137.275l654.080-261.632 654.080 261.632v137.275c0 45.132-36.628 81.76-81.76 81.76v0zM0 607.451v-546.811c0-45.132 36.628-81.76 81.76-81.76h1144.64c45.132 0 81.76 36.628 81.76 81.76v546.811l-654.080-261.632-654.080 261.632z" />
<glyph unicode="&#xe90d;" d="M1024 448c0-282.77-229.23-512-512-512s-512 229.23-512 512c0 282.77 229.23 512 512 512s512-229.23 512-512z" />
<glyph unicode="&#xe90e;" d="M786.286 402.286h-228.571v-228.571c0-25.234-20.48-45.714-45.714-45.714s-45.714 20.48-45.714 45.714v228.571h-228.571c-25.234 0-45.714 20.48-45.714 45.714s20.48 45.714 45.714 45.714h228.571v228.571c0 25.234 20.48 45.714 45.714 45.714s45.714-20.48 45.714-45.714v-228.571h228.571c25.234 0 45.714-20.48 45.714-45.714s-20.48-45.714-45.714-45.714v0z" />
<glyph unicode="&#xe90f;" glyph-name="error" horiz-adv-x="1081" d="M65.781-64h915.185c23.1 0 44.555 12.561 56.467 33.178 11.912 20.548 12.504 46.080 1.645 67.243l-456.605 887.467c-11.386 22.187-33.696 36.113-57.981 36.113h-0.066c-24.285 0-46.529-13.858-57.981-36.045l-458.646-887.467c-10.925-21.163-10.333-46.694 1.514-67.311 11.912-20.548 33.367-33.178 56.467-33.178v0zM524.427 209.067c36.328 0 65.812-30.583 65.812-68.267s-29.484-68.267-65.812-68.267c-36.328 0-65.812 30.583-65.812 68.267s29.484 68.267 65.812 68.267v0zM458.615 344.508v273.067c0 37.683 29.484 68.267 65.812 68.267s65.812-30.583 65.812-68.267v-273.067c0-37.683-29.484-68.267-65.812-68.267s-65.812 30.583-65.812 68.267v0z" />
<glyph unicode="&#xe910;" glyph-name="video" horiz-adv-x="1280" d="M1278.381 48.516c0-49.852-55.755-77.264-92.8-45.583l-294.776 252.157v-159.855c0-84.078-65.544-152.257-146.372-152.257h-598.061c-80.828 0-146.372 68.179-146.372 152.257v712.492c0 84.117 65.544 152.257 146.372 152.257h598.061c80.828 0 146.372-68.14 146.372-152.257v-148.145l294.776 252.157c37.045 31.681 92.8 4.269 92.8-45.583v-817.639z" />
<glyph unicode="&#xe911;" glyph-name="dashboard" d="M0 658.824h237.392v-722.2h-237.392v722.2zM370.925 820.088h237.392v-866.64h-237.392v866.64zM783.059 960h237.392v-1011.081h-237.392v1011.081z" />
<glyph unicode="&#xe912;" glyph-name="x" d="M815.602 908.26l-318.276-318.276-318.276 318.276c-35.138 35.138-92.173 35.138-127.31 0s-35.138-92.173 0-127.31l318.276-318.276-318.276-318.276c-35.138-35.138-35.138-92.173 0-127.31s92.173-35.138 127.31 0l318.276 318.276 318.276-318.276c35.138-35.138 92.173-35.138 127.31 0s35.138 92.173 0 127.31l-318.276 318.276 318.276 318.276c35.138 35.138 35.138 92.173 0 127.31s-92.173 35.138-127.31 0v0z" />
<glyph unicode="&#xe913;" glyph-name="Rightarrow" horiz-adv-x="614" d="M0 960v-1018.841l580.924 509.42z" />
<glyph unicode="&#xe916;" glyph-name="+" d="M950.857 521.143h-365.714v365.714c0 40.375-32.768 73.143-73.143 73.143s-73.143-32.768-73.143-73.143v-365.714h-365.714c-40.375 0-73.143-32.768-73.143-73.143s32.768-73.143 73.143-73.143h365.714v-365.714c0-40.375 32.768-73.143 73.143-73.143s73.143 32.768 73.143 73.143v365.714h365.714c40.375 0 73.143 32.768 73.143 73.143s-32.768 73.143-73.143 73.143v0z" />
<glyph unicode="&#xe917;" glyph-name="search" d="M404.469 960c223.391 0 404.469-181.078 404.469-404.469 0-96.139-33.726-184.376-89.73-253.82l267.323-267.323c16.801-16.801 16.801-44.118 0-60.919s-44.118-16.801-60.919 0l-267.323 267.323c-69.444-56.003-157.681-89.73-253.82-89.73-223.391 0-404.469 181.078-404.469 404.469s181.078 404.469 404.469 404.469v0zM404.469 213.288c188.731 0 342.243 153.511 342.243 342.243s-153.511 342.243-342.243 342.243c-188.731 0-342.243-153.511-342.243-342.243s153.511-342.243 342.243-342.243v0z" />
<glyph unicode="&#xe918;" glyph-name="upload2" horiz-adv-x="1387" d="M1109.333 448c-2.987 0-5.803-0.768-8.704-0.853 5.717 27.819 8.704 56.661 8.704 86.187 0 235.605-191.061 426.667-426.667 426.667s-426.667-191.061-426.667-426.667c0-1.451 0.427-2.816 0.427-4.267-144.725-20.651-256.427-143.957-256.427-294.4 0-164.949 133.717-298.667 298.667-298.667h214.016c46.763 0 84.651 37.888 84.651 84.651v256.683h-181.077l266.411 341.333 266.411-341.333h-181.077v-256.683c0-46.763 37.888-84.651 84.651-84.651h256.683c141.397 0 256 114.603 256 256s-114.603 256-256 256v0z" />
<glyph unicode="&#xe919;" glyph-name="Leftarrow" horiz-adv-x="652" d="M583.776 960l17.871-1023.844-592.712 501.732z" />
</font>
</defs>
</svg>
